<svg class="icon" viewBox="0 0 1024 1024" xmlns="http://www.w3.org/2000/svg" width="200" height="200"><path d="M346.96 320.528h329.936v48H346.96v-48zM346.96 435.568h329.936v48H346.96v-48z"/><path d="M816.24 127.984h-608c-8.848 0-16 7.152-16 16v533.168c-.176 1.536-.464 3.056-.464 4.64 0 78.592 58.896 143.552 134.848 153.424l-.464.352 474.096 60.448c17.664 0 32-14.32 32-32V143.984c-.016-8.848-7.184-16-16.016-16zm-64 675.312L434.8 617.136c-7.456-4.736-13.504-1.424-13.504 7.424v54.752-.224c-.064.912 0 1.776 0 2.704 0 41.28-33.392 74.864-74.672 74.864s-74.384-30.848-74.384-72.128c0-1.456.144-3.52 0-4.928V207.984h480v595.312z"/></svg>