<?xml version="1.0" standalone="no"?><!DOCTYPE svg PUBLIC "-//W3C//DTD SVG 1.1//EN" "http://www.w3.org/Graphics/SVG/1.1/DTD/svg11.dtd"><svg t="1642835227374" class="icon" viewBox="0 0 1024 1024" version="1.1" xmlns="http://www.w3.org/2000/svg" p-id="1735" width="32" height="32" xmlns:xlink="http://www.w3.org/1999/xlink"><defs><style type="text/css"></style></defs><path d="M477.44 591.02c-5.87 0-11.73-2.24-16.21-6.72l-65.8-65.79c-8.96-8.96-8.96-23.46 0-32.42 8.94-8.96 23.46-8.96 32.42 0l65.8 65.79c8.96 8.96 8.96 23.46 0 32.42a22.827 22.827 0 0 1-16.21 6.72z" p-id="1736"></path><path d="M477.44 591.02c-5.87 0-11.73-2.24-16.21-6.72-8.96-8.96-8.96-23.46 0-32.42l131.6-131.6c8.96-8.96 23.46-8.96 32.42 0s8.96 23.46 0 32.42l-131.6 131.6a22.827 22.827 0 0 1-16.21 6.72z" p-id="1737"></path><path d="M510.35 841.47c-8.47 0-16.95-2.22-24.67-6.66L332.46 747.1c-63.18-36.15-102.43-105.6-102.43-181.23V306.83c0-28.9 22.78-52.41 50.79-52.41h4.67c49.59 0 99.39-12.11 144.02-35.02l54.7-28.09c16.43-8.42 35.36-8.66 51.94-0.63l66.73 32.23c43.31 20.91 89.4 31.51 136.99 31.51 28 0 50.79 23.51 50.79 52.41v259.05c0 75.63-39.25 145.08-102.42 181.23L535 834.83c-7.72 4.42-16.18 6.64-24.65 6.64z m-229.54-541.2c-2.38 0-4.93 2.63-4.93 6.55v259.05c0 59.23 30.4 113.42 79.36 141.44l153.24 87.72c1.24 0.72 2.52 0.7 3.73 0.01l153.26-87.74c48.94-28.02 79.35-82.21 79.35-141.44V306.83c0-3.93-2.55-6.55-4.93-6.55-54.55 0-107.35-12.14-156.93-36.08l-66.74-32.23c-3.57-1.72-7.51-1.67-11.05 0.15l-54.7 28.08c-51.09 26.21-108.13 40.08-164.97 40.08h-4.69z" p-id="1738"></path><path d="M510.35 618.11c-114.75 0-222.83-7.21-304.3-20.3-100.81-16.2-143.83-37.41-143.83-70.93 0-26.15 21.26-55.62 178.92-75.99 12.61-1.7 24.05 7.25 25.68 19.79 1.62 12.55-7.25 24.06-19.8 25.67-84.51 10.93-119.16 23.79-132.6 30.82 37.42 20.17 183.66 45.08 395.93 45.08s358.51-24.91 395.93-45.08c-14.05-7.36-51.26-21.09-144.22-32.27-12.57-1.51-21.54-12.93-20.02-25.49 1.52-12.58 12.91-21.67 25.5-20.03 168.25 20.23 190.94 50.53 190.94 77.5 0 33.52-43.02 54.73-143.83 70.93-81.48 13.1-189.55 20.3-304.3 20.3z m403.81-85.69h0.15-0.15z" p-id="1739"></path><path d="M718.57 422.15h26.24v75.55h-26.24z" fill="#FFFFFF" p-id="1740"></path></svg>