<?xml version="1.0" standalone="no"?><!DOCTYPE svg PUBLIC "-//W3C//DTD SVG 1.1//EN" "http://www.w3.org/Graphics/SVG/1.1/DTD/svg11.dtd"><svg t="1642834952828" class="icon" viewBox="0 0 1228 1024" version="1.1" xmlns="http://www.w3.org/2000/svg" p-id="3289" width="38.375" height="32" xmlns:xlink="http://www.w3.org/1999/xlink"><defs><style type="text/css"></style></defs><path d="M63.965867 614.4c76.1856 50.176 213.333333 85.1968 372.736 90.385067A183.978667 183.978667 0 0 0 382.293333 834.901333l0.341334 11.4688c0.8192 13.038933 3.072 25.736533 6.485333 37.888-221.457067-15.837867-389.12-89.9072-389.12-178.858666C0 672.1536 23.278933 641.092267 63.965867 614.4z m827.8016-273.066667c40.686933 26.760533 63.965867 57.821867 63.965866 90.999467l-0.341333 7.304533A278.050133 278.050133 0 0 0 828.279467 409.6C696.183467 409.6 588.253867 498.346667 580.949333 610.0992 547.771733 613.034667 513.297067 614.4 477.866667 614.4 213.947733 614.4 0 532.8896 0 432.3328 0 399.1552 23.278933 368.093867 63.965867 341.333333 146.568533 395.741867 300.987733 432.3328 477.866667 432.3328c171.554133 0 322.013867-34.4064 406.254933-86.152533L891.767467 341.333333zM477.866667 0c263.918933 0 477.866667 76.458667 477.866666 170.666667S741.7856 341.333333 477.866667 341.333333 0 264.874667 0 170.666667 213.947733 0 477.866667 0z" fill="#808080" p-id="3290"></path><path d="M819.2 477.866667c125.610667 0 227.5328 84.650667 227.5328 189.098666 0 7.031467-0.477867 14.062933-1.365333 20.957867h1.365333c100.5568 0 182.0672 75.229867 182.0672 168.004267C1228.8 948.770133 1147.2896 1024 1046.7328 1024l-6.007467-0.068267-4.5056 0.068267H602.180267l-4.573867-0.2048-5.9392 0.2048c-96.6656 0-175.786667-69.563733-181.725867-157.422933L409.6 855.927467c0-92.7744 81.5104-168.004267 182.0672-168.004267h1.365333l-1.024-9.898667-0.341333-11.127466C591.6672 562.517333 693.521067 477.866667 819.2 477.866667z" fill="#808080" p-id="3291"></path></svg>