<?xml version="1.0" standalone="no"?><!DOCTYPE svg PUBLIC "-//W3C//DTD SVG 1.1//EN" "http://www.w3.org/Graphics/SVG/1.1/DTD/svg11.dtd"><svg t="1642912464937" class="icon" viewBox="0 0 1024 1024" version="1.1" xmlns="http://www.w3.org/2000/svg" p-id="2421" width="32" height="32" xmlns:xlink="http://www.w3.org/1999/xlink"><defs><style type="text/css"></style></defs><path d="M687.137069 136.288461H576.185895a29.861802 29.861802 0 0 1-29.962347 29.912074H377.559666a29.962347 29.962347 0 0 1-29.962347-29.912074H235.389335c-34.185228 0-62.237224 28.001724-62.237224 62.237223v578.836347c0 34.2355 28.001724 62.237224 62.237224 62.237224h298.517477c-40.972001-33.682504-76.615129-78.424935-92.501206-126.435072H282.94702a30.012619 30.012619 0 0 1-21.114406-51.127025 29.861802 29.861802 0 0 1 21.114406-8.797668h149.761462v-123.67009H282.896748a30.012619 30.012619 0 0 1-21.114406-51.127025 29.861802 29.861802 0 0 1 21.114406-8.797669H433.563113c4.373698-22.873939 24.382111-40.469277 48.462588-41.173091a270.716842 270.716842 0 0 0 83.753808-17.595338 399.062265 399.062265 0 0 0 73.045789-37.60375L639.177205 373.021165c9.350665-6.635956 20.410592-9.752844 31.319701-9.400938 8.345217 0.301634 16.489345 3.066616 23.728571 7.239225l6.837045 3.921246c5.831598 3.870974 23.477208 15.081718 49.518308 27.046548v-202.095024c0-34.889042-28.55472-63.443761-63.443761-63.443761z m-25.136197 195.810975a29.861802 29.861802 0 0 1-21.114406 8.797669h-357.939446a29.962347 29.962347 0 1 1 0-59.924694h357.939446a29.962347 29.962347 0 0 1 21.114406 51.127025z" p-id="2422"></path><path d="M845.143204 539.925513V487.99413a330.28963 330.28963 0 0 1-94.763463-21.114406 477.537472 477.537472 0 0 1-78.32439-39.413557l-3.368251-2.061168c-13.121095 8.646852-42.077994 25.890283-81.139644 41.374181a330.691809 330.691809 0 0 1-95.014825 21.164678v173.188397c0 36.849665 24.884835 81.944002 66.510378 120.653746 39.011378 36.196124 78.726569 54.646092 102.656228 57.813254a52.584924 52.584924 0 0 0 14.27736 0c15.936349-2.111441 38.910833-11.009654 63.996758-27.398455 12.568099-8.1944 25.638921-18.299151 38.609199-30.414799 41.675815-38.709743 66.510377-83.854353 66.510377-120.653746l0.050273-22.421487V539.925513z m-78.173573 41.524998l-107.432106 104.566579c-5.027239 4.876422-11.562651 7.540859-18.600786 7.54086h-0.301635a26.543824 26.543824 0 0 1-18.399696-7.54086l-51.529204-50.071304a26.141645 26.141645 0 0 1-0.452451-36.849665l0.351906-0.351907a27.046548 27.046548 0 0 1 37.402662-0.201089l32.928418 32.023515 88.680503-86.367973c10.50693-10.054479 26.845458-10.054479 37.251844-0.100545a26.0411 26.0411 0 0 1 0.100545 37.352389z" p-id="2423"></path></svg>