<?xml version="1.0" standalone="no"?><!DOCTYPE svg PUBLIC "-//W3C//DTD SVG 1.1//EN" "http://www.w3.org/Graphics/SVG/1.1/DTD/svg11.dtd"><svg t="1642912443184" class="icon" viewBox="0 0 1024 1024" version="1.1" xmlns="http://www.w3.org/2000/svg" p-id="2153" width="32" height="32" xmlns:xlink="http://www.w3.org/1999/xlink"><defs><style type="text/css"></style></defs><path d="M197.568 112.192h629.312a85.312 85.312 0 0 1 85.312 85.376V628.48a85.312 85.312 0 0 1-85.312 85.312H197.568A85.312 85.312 0 0 1 112.192 628.48V197.568a85.312 85.312 0 0 1 85.376-85.376zM569.152 524.8l188.16-183.04v0.448a42.688 42.688 0 1 0-59.712-61.056l-161.728 157.44L456.128 377.6a42.688 42.688 0 0 0-52.096 0L268.8 483.008A42.688 42.688 0 0 0 320.832 550.4l107.52-85.312 85.376 63.104a42.688 42.688 0 0 0 55.424-3.392z m-462.464 249.6h810.624a38.848 38.848 0 0 1 42.688 34.56v68.672a38.848 38.848 0 0 1-42.688 34.56H106.688a39.296 39.296 0 0 1-42.688-34.56V808.96a39.296 39.296 0 0 1 42.688-34.56z" p-id="2154"></path></svg>